<svg width="31" height="30" viewBox="0 0 31 30" fill="none" xmlns="http://www.w3.org/2000/svg">
<path d="M11.125 0.458344V3.37501H19.875V0.458344H22.7917V3.37501H28.625C29.4305 3.37501 30.0834 4.02794 30.0834 4.83334V28.1667C30.0834 28.9721 29.4305 29.625 28.625 29.625H2.37502C1.56961 29.625 0.916687 28.9721 0.916687 28.1667V4.83334C0.916687 4.02794 1.56961 3.37501 2.37502 3.37501H8.20835V0.458344H11.125ZM27.1667 10.6667H3.83335V26.7083H27.1667V10.6667ZM19.9268 13.7817L21.9892 15.8442L14.7709 23.0625L9.61487 17.9066L11.6773 15.8442L14.7709 18.9378L19.9268 13.7817Z" fill="url(#paint0_linear_555_2)"/>
<defs>
<linearGradient id="paint0_linear_555_2" x1="25.5625" y1="4.39584" x2="6.45835" y2="26.4167" gradientUnits="userSpaceOnUse">
<stop stop-color="#00579E"/>
<stop offset="1" stop-color="#00345F"/>
</linearGradient>
</defs>
</svg>
