<svg width="216" height="46" viewBox="0 0 216 46" fill="none" xmlns="http://www.w3.org/2000/svg">
<path d="M41.6884 38.1157V4.76346H48.5031V19.8661L61.6537 4.76346H70.6282L55.6532 21.3443L71.107 38.1157H62.084L48.5011 22.9168V38.1157H41.6863H41.6884Z" fill="#131313"/>
<path d="M73.2203 26.2522V13.817H79.6027V25.3938C79.6027 30.1111 81.714 32.6362 85.2658 32.6362C89.0095 32.6362 91.0723 29.9687 91.0723 25.3938V13.817H97.4082V38.1157H91.0723V34.8284C89.3934 37.0206 86.6558 38.3544 83.3444 38.3544C77.1055 38.3544 73.2183 34.1144 73.2183 26.2522H73.2203Z" fill="#131313"/>
<path d="M126.588 27.8246H108.11C108.829 31.0638 111.422 33.0173 114.254 33.0173C116.895 33.0173 118.574 31.7778 119.341 30.1592H126.013C124.334 35.019 120.014 38.3544 114.254 38.3544C107.296 38.3544 101.728 32.8268 101.728 25.9674C101.728 19.108 107.296 13.5804 114.254 13.5804C121.212 13.5804 126.78 18.9636 126.78 25.492C126.78 26.1599 126.683 27.2069 126.588 27.8266V27.8246ZM120.35 23.7271C119.677 20.869 117.133 18.9155 114.254 18.9155C111.375 18.9155 109.023 20.7266 108.207 23.7271H120.35Z" fill="#131313"/>
<path d="M131.1 38.1157V13.817H137.436V17.1043C139.115 14.9121 141.804 13.5784 145.164 13.5784C151.403 13.5784 155.29 17.8184 155.29 25.6806V38.1157H148.907V26.539C148.907 21.8217 146.796 19.2965 143.244 19.2965C139.501 19.2965 137.438 21.9641 137.438 26.539V38.1157H131.102H131.1Z" fill="#131313"/>
<path d="M159.32 25.9654C159.32 19.0097 164.119 13.5784 171.366 13.5784C174.342 13.5784 177.126 14.7216 179.14 16.5809V0H185.523V38.1157H179.14V35.3519C177.124 37.2092 174.342 38.3544 171.366 38.3544C164.119 38.3544 159.32 32.923 159.32 25.9674V25.9654ZM179.142 25.9654C179.142 22.0102 176.31 19.0579 172.376 19.0579C168.442 19.0579 165.705 22.0122 165.705 25.9654C165.705 29.9186 168.489 32.8729 172.376 32.8729C176.263 32.8729 179.142 29.9186 179.142 25.9654Z" fill="#131313"/>
<path d="M189.796 25.9654C189.796 19.0097 194.594 13.5784 201.841 13.5784C204.817 13.5784 207.601 14.7216 209.616 16.5809V13.817H215.998V38.1157H209.616V35.3519C207.599 37.2092 204.817 38.3544 201.841 38.3544C194.594 38.3544 189.796 32.923 189.796 25.9674V25.9654ZM209.618 25.9654C209.618 22.0102 206.785 19.0579 202.851 19.0579C198.918 19.0579 196.18 22.0122 196.18 25.9654C196.18 29.9185 198.964 32.8729 202.851 32.8729C206.739 32.8729 209.618 29.9185 209.618 25.9654Z" fill="#131313"/>
<path d="M34.8171 4.89984H0V10.4114H34.8171V4.89984Z" fill="#00579E"/>
<path d="M17.452 10.4134C7.86127 10.4134 0.0585938 18.1573 0.0585938 27.6782V38.204H5.27317V27.6782C5.27317 21.0114 10.7363 15.588 17.452 15.588C24.1677 15.588 29.6308 21.0114 29.6308 27.6782V38.204H34.8454V27.6782C34.8454 18.1573 27.0427 10.4134 17.454 10.4134H17.452Z" fill="#00579E"/>
<path d="M17.452 19.9965C12.3869 19.9965 8.28151 24.072 8.28151 29.1002C8.28151 34.1284 12.3869 38.2039 17.452 38.2039C22.517 38.2039 26.6204 34.1284 26.6204 29.1002C26.6204 24.072 22.515 19.9965 17.452 19.9965ZM20.0017 30.5624L17.452 32.0245L14.9023 30.5624V27.6381L17.452 26.178L20.0017 27.6381V30.5624Z" fill="#00579E"/>
<path d="M42.9127 44.5319V41.1744H41.753V40.4222H44.9108V41.1744H43.7512V44.5319H42.9107H42.9127Z" fill="#00579E"/>
<path d="M45.1412 44.5319V41.5374H45.921V41.9065C46.0928 41.6658 46.3696 41.5073 46.707 41.5073C46.8019 41.5073 46.8605 41.5133 46.9433 41.5314V42.3176C46.814 42.2935 46.7595 42.2875 46.6484 42.2875C46.2584 42.2875 45.921 42.5523 45.921 43.0096V44.5299H45.1412V44.5319Z" fill="#00579E"/>
<path d="M47.1979 43.0356C47.1979 42.1792 47.7899 41.5093 48.6829 41.5093C49.0486 41.5093 49.392 41.6497 49.6405 41.8784V41.5374H50.4265V44.5318H49.6405V44.1909C49.392 44.4195 49.0486 44.5599 48.6829 44.5599C47.7899 44.5599 47.1979 43.89 47.1979 43.0336V43.0356ZM49.6405 43.0356C49.6405 42.5482 49.291 42.1852 48.8061 42.1852C48.3212 42.1852 47.9838 42.5482 47.9838 43.0356C47.9838 43.523 48.3273 43.886 48.8061 43.886C49.285 43.886 49.6405 43.523 49.6405 43.0356Z" fill="#00579E"/>
<path d="M51.1053 44.5319V41.5374H51.8852V41.9426C52.0913 41.6718 52.4226 41.5073 52.8368 41.5073C53.6045 41.5073 54.0833 42.0288 54.0833 42.9975V44.5299H53.2974V43.1038C53.2974 42.5222 53.0368 42.2113 52.6004 42.2113C52.1397 42.2113 51.8852 42.5402 51.8852 43.1038V44.5299H51.1053V44.5319Z" fill="#00579E"/>
<path d="M54.5581 43.5992H55.3097C55.3622 43.8339 55.5764 43.9402 55.8067 43.9402C56.0552 43.9402 56.2209 43.8459 56.2209 43.6534C56.2209 43.1901 54.6309 43.4247 54.6309 42.3858C54.6309 41.8523 55.1097 41.5113 55.7724 41.5113C56.2391 41.5113 56.8371 41.7339 56.9139 42.4279H56.2047C56.1744 42.2695 56.0269 42.1351 55.7724 42.1351C55.536 42.1351 55.4107 42.2474 55.4107 42.3878C55.4107 42.8331 57.0068 42.6104 57.0068 43.6554C57.0068 44.2551 56.4391 44.566 55.8067 44.566C55.2572 44.566 54.6531 44.3253 54.5601 43.6032L54.5581 43.5992Z" fill="#00579E"/>
<path d="M57.5139 46V41.5394H58.2938V41.8804C58.5423 41.6517 58.8858 41.5113 59.2575 41.5113C60.1445 41.5113 60.7364 42.1812 60.7364 43.0376C60.7364 43.8941 60.1445 44.5639 59.2575 44.5639C58.8858 44.5639 58.5423 44.4236 58.2938 44.1949V46.002H57.5139V46ZM59.9566 43.0356C59.9566 42.5483 59.607 42.1852 59.1282 42.1852C58.6494 42.1852 58.2938 42.5483 58.2938 43.0356C58.2938 43.523 58.6494 43.886 59.1282 43.886C59.607 43.886 59.9566 43.523 59.9566 43.0356Z" fill="#00579E"/>
<path d="M61.1142 43.0356C61.1142 42.1852 61.7991 41.5093 62.6578 41.5093C63.5165 41.5093 64.2014 42.1852 64.2014 43.0356C64.2014 43.886 63.5144 44.5619 62.6578 44.5619C61.8012 44.5619 61.1142 43.886 61.1142 43.0356ZM63.4195 43.0356C63.4195 42.6004 63.0821 42.2614 62.6558 42.2614C62.2295 42.2614 61.8981 42.6024 61.8981 43.0356C61.8981 43.4688 62.2295 43.8098 62.6558 43.8098C63.0821 43.8098 63.4195 43.4688 63.4195 43.0356Z" fill="#00579E"/>
<path d="M64.7327 44.5319V41.5374H65.5126V41.9065C65.6843 41.6658 65.9611 41.5073 66.2985 41.5073C66.3935 41.5073 66.4521 41.5133 66.5349 41.5314V42.3176C66.4056 42.2935 66.351 42.2875 66.2399 42.2875C65.85 42.2875 65.5126 42.5523 65.5126 43.0096V44.5299H64.7327V44.5319Z" fill="#00579E"/>
<path d="M67.3168 44.5319V42.2655H66.7248V41.5374H67.3168V40.5687H68.1027V41.5374H68.7533V42.2655H68.1027V44.5319H67.3168Z" fill="#00579E"/>
<path d="M72.0687 43.2643H69.7917C69.8806 43.6634 70.1998 43.9041 70.5494 43.9041C70.8746 43.9041 71.0807 43.7517 71.1757 43.5511H71.998C71.7919 44.1508 71.2585 44.56 70.5494 44.56C69.6927 44.56 69.0058 43.88 69.0058 43.0336C69.0058 42.1872 69.6907 41.5073 70.5494 41.5073C71.408 41.5073 72.0929 42.1712 72.0929 42.9755C72.0929 43.0577 72.0808 43.1861 72.0687 43.2623V43.2643ZM71.3009 42.7589C71.2181 42.4059 70.905 42.1652 70.5494 42.1652C70.1938 42.1652 69.9049 42.3878 69.8039 42.7589H71.2989H71.3009Z" fill="#00579E"/>
<path d="M72.4465 43.5992H73.1981C73.2506 43.8339 73.4648 43.9402 73.6951 43.9402C73.9436 43.9402 74.1093 43.8459 74.1093 43.6534C74.1093 43.1901 72.5192 43.4247 72.5192 42.3858C72.5192 41.8523 72.9981 41.5113 73.6607 41.5113C74.1274 41.5113 74.7255 41.7339 74.8022 42.4279H74.0931C74.0628 42.2695 73.9153 42.1351 73.6607 42.1351C73.4244 42.1351 73.2991 42.2474 73.2991 42.3878C73.2991 42.8331 74.8952 42.6104 74.8952 43.6554C74.8952 44.2551 74.3275 44.566 73.6951 44.566C73.1455 44.566 72.5415 44.3253 72.4465 43.6032V43.5992Z" fill="#00579E"/>
</svg>
