<svg width="229" height="42" viewBox="0 0 229 42" fill="none" xmlns="http://www.w3.org/2000/svg">
<g clip-path="url(#clip0_159_213)">
<mask id="mask0_159_213" style="mask-type:luminance" maskUnits="userSpaceOnUse" x="0" y="0" width="43" height="42">
<path d="M0.539978 0.416992H42.02V41.614H0.539978V0.416992Z" fill="white"/>
</mask>
<g mask="url(#mask0_159_213)">
<path fill-rule="evenodd" clip-rule="evenodd" d="M15.088 21.016C15.088 24.412 17.86 27.166 21.279 27.166C24.699 27.166 27.471 24.412 27.471 21.016C27.471 17.618 24.699 14.864 21.279 14.864C17.86 14.864 15.088 17.618 15.088 21.016ZM5.38797 19.459C4.76797 18.834 4.29497 18.066 4.07197 17.237L2.81397 12.577C2.24397 10.465 3.50597 8.75397 5.63097 8.75397H11.154C11.16 7.87597 11.373 7.00097 11.804 6.25597L14.234 2.07897C15.332 0.185972 17.443 -0.139028 18.944 1.35497L22.851 5.23397C23.48 4.61697 24.253 4.14797 25.087 3.92397L29.78 2.67697C31.905 2.11097 33.628 3.36397 33.628 5.47497V10.961C34.512 10.969 35.393 11.178 36.141 11.608L40.347 14.02C42.253 15.112 42.579 17.209 41.077 18.702L37.267 22.486C37.904 23.119 38.391 23.9 38.619 24.744L39.877 29.406C40.445 31.516 39.183 33.226 37.059 33.226H31.672C31.672 34.123 31.459 35.016 31.02 35.775L28.591 39.953C27.491 41.846 25.381 42.17 23.88 40.677L20.069 36.892C19.432 37.526 18.646 38.009 17.796 38.235L13.103 39.485C10.979 40.05 9.25697 38.797 9.25697 36.685V31.073C8.26597 31.121 7.25897 30.913 6.41897 30.433L2.21297 28.02C0.307973 26.928 -0.0180273 24.831 1.48497 23.34L5.38897 19.46" fill="#F0F1F1"/>
</g>
<path fill-rule="evenodd" clip-rule="evenodd" d="M13.3389 13.1559H5.70895L5.50895 12.3919C5.37695 11.8939 5.63295 11.6019 6.12895 11.6019H11.7489L13.3389 13.1559ZM21.2839 12.5589C20.003 12.566 18.7397 12.8585 17.5859 13.4149L13.7959 9.64989C13.4409 9.29789 13.4069 8.79589 13.6649 8.35489L15.2869 5.58789L21.2889 11.5479L21.2839 12.5589ZM21.3019 9.88489L15.9159 4.51689L16.3099 3.84489C16.5699 3.40089 16.9599 3.37389 17.3099 3.72289L21.2839 7.66889L21.3019 9.88489ZM27.3449 15.0449C26.433 14.1479 25.3317 13.4665 24.1219 13.0509V7.72589C24.1219 7.23089 24.4559 6.84889 24.9509 6.71989L28.0669 5.90189V14.3319L27.3449 15.0449ZM29.2629 13.1649V5.58589L30.0329 5.38789C30.5319 5.25689 30.8279 5.50989 30.8279 6.00289V11.5859L29.2629 13.1649ZM29.8629 21.0589C29.8549 19.7852 29.5607 18.5296 29.0019 17.3849L32.7919 13.6189C33.1459 13.2679 33.6519 13.2329 34.0949 13.4899L36.881 15.1019L30.8799 21.0619L29.8619 21.0589H29.8629ZM32.5559 21.0769L37.9599 15.7269L38.636 16.1169C39.082 16.3759 39.11 16.7629 38.7589 17.1109L34.7859 21.0589L32.5559 21.0769ZM27.3619 27.0789C28.2621 26.1754 28.9477 25.0811 29.3679 23.8769H34.7279C35.2279 23.8769 35.611 24.2089 35.741 24.6999L36.5639 27.7979H28.0779L27.3619 27.0789ZM29.2539 28.9839L36.882 28.9959L37.082 29.7489C37.215 30.2449 36.957 30.5369 36.463 30.5369H30.8429L29.2539 28.9839ZM21.3069 29.5809C22.5885 29.5737 23.8524 29.2813 25.0069 28.7249L28.7959 32.4909C29.1489 32.8409 29.1859 33.3449 28.9259 33.7849L27.3039 36.5519L21.3029 30.5919L21.3069 29.5809ZM21.2899 32.2559L26.6749 37.6229L26.2809 38.2959C26.0209 38.7399 25.6319 38.7669 25.2809 38.4199L21.3069 34.4699L21.2899 32.2559ZM15.2469 27.0959C16.1594 27.9926 17.261 28.6736 18.4709 29.0889V34.4149C18.4709 34.9109 18.1359 35.2909 17.6409 35.4219L14.5229 36.2379V27.8079L15.2469 27.0959ZM13.3299 28.9759V36.5539L12.5589 36.7519C12.0599 36.8839 11.7649 36.6299 11.7649 36.1359V30.5549L13.3299 28.9759ZM12.7279 21.0809C12.7353 22.355 13.0296 23.6111 13.5889 24.7559L9.79995 28.5199C9.44695 28.8709 8.93995 28.9059 8.49795 28.6499L5.70995 27.0369L11.7119 21.0769L12.7279 21.0809ZM10.0359 21.0639L4.63295 26.4149L3.95595 26.0219C3.50895 25.7629 3.48095 25.3769 3.83195 25.0289L7.80495 21.0809L10.0359 21.0639ZM15.2299 15.0599C14.3297 15.9639 13.6439 17.0585 13.2229 18.2629H7.86295C7.36295 18.2629 6.97995 17.9329 6.84995 17.4389L6.02695 14.3439H14.5129L15.2299 15.0599Z" fill="#F00041"/>
<path d="M178.431 34.8015C173.994 34.8015 169.557 34.8207 165.121 34.8015C163.315 34.8015 161.702 34.2637 160.492 32.8041C159.705 31.8438 159.32 30.7106 159.301 29.4814C159.263 26.4468 159.263 23.3931 159.282 20.3585C159.301 17.516 161.299 15.3649 164.16 15.1344C165.543 15.0192 166.945 15.0576 168.328 15.0576C171.92 15.0384 175.53 15.0384 179.122 15.0576C180.831 15.0576 182.329 15.6338 183.443 16.9206C184.999 18.7068 185.249 20.7618 184.48 22.9513C183.731 25.1024 182.118 26.2164 179.909 26.5621C179.66 26.6005 179.391 26.6005 179.122 26.6005C174.877 26.6005 170.614 26.6005 166.369 26.6197C165.985 26.6197 165.87 26.5237 165.889 26.1395C165.927 25.5634 165.927 24.9872 165.889 24.411C165.87 23.9885 166.004 23.854 166.427 23.8732C169.365 23.8924 172.323 23.8732 175.262 23.8732C176.126 23.8732 177.009 23.854 177.874 23.8732C178.776 23.8924 179.468 23.5083 179.986 22.7977C181.043 21.338 180.927 19.6479 179.66 18.4571C179.122 17.9577 178.469 17.7273 177.758 17.7273C173.975 17.7273 170.191 17.7465 166.407 17.7465C165.332 17.7465 163.968 18.6876 163.93 20.0704C163.93 20.3777 163.872 20.7042 163.872 21.0115C163.872 23.662 163.872 26.3124 163.872 28.9628C163.872 29.6351 163.988 30.2689 164.41 30.8258C164.967 31.5365 165.697 31.7669 166.561 31.7669C169.308 31.7669 172.073 31.7669 174.82 31.7669C179.929 31.7669 185.037 31.7669 190.127 31.7669C191.606 31.7669 192.24 31.21 192.432 29.7695C192.489 29.3662 192.489 28.9436 192.489 28.5211C192.489 25.8707 192.47 23.2202 192.509 20.5698C192.509 19.936 192.585 19.3022 192.739 18.6876C193.296 16.6709 194.967 15.3073 197.118 15.096C197.829 15.0192 198.539 15.0192 199.25 15.0192C202.304 15.0192 205.338 15.0192 208.392 15C208.834 15 208.949 15.1344 208.93 15.5378C208.911 16.2676 208.911 17.0166 208.93 17.7465C208.93 18.0538 208.853 18.1498 208.507 18.1498C205.454 18.1498 202.419 18.1498 199.365 18.1882C198.174 18.2074 197.31 19.1677 197.214 20.5314C197.176 21.0691 197.195 21.6261 197.195 22.1831C197.195 24.5262 197.214 26.8502 197.176 29.1933C197.156 29.9424 197.08 30.7298 196.868 31.4404C196.311 33.4187 194.813 34.3406 192.874 34.6094C191.894 34.7439 190.876 34.7631 189.877 34.7823C186.094 34.8207 182.253 34.8015 178.431 34.8015Z" fill="#F0F1F1"/>
<path d="M55.5882 26.5621C55.5882 25.7554 55.5882 24.9296 55.6074 24.1229C55.6074 24.0461 55.7611 23.9308 55.8571 23.9116C56.03 23.8732 56.2412 23.8732 56.4141 23.8732C60.044 23.8732 63.674 23.7964 67.2847 23.9309C69.4166 24.0077 70.7611 21.7029 70.3001 20.0512C69.8968 18.5915 68.9365 17.7465 67.4 17.7273C63.7124 17.6889 60.0248 17.6889 56.3565 17.7273C54.6663 17.7465 53.5524 18.8988 53.5332 20.6082C53.514 23.4507 53.514 26.2932 53.5332 29.1165C53.5524 30.749 54.6471 31.7861 56.2988 31.7861C61.7726 31.7861 67.2271 31.7861 72.7009 31.7861C72.8353 31.7861 72.9698 31.7861 73.085 31.7861C73.3155 31.7861 73.4115 31.8822 73.4115 32.1319C73.3923 32.8425 73.3539 33.5723 73.3923 34.2829C73.4115 34.6287 73.3155 34.7247 72.9698 34.7247C69.8008 34.7247 66.6509 34.7439 63.4819 34.7439C60.5626 34.7439 57.6433 34.7439 54.7431 34.7439C52.4768 34.7247 50.6907 33.8988 49.5959 31.8246C49.1926 31.0563 49.0389 30.2112 49.0197 29.3662C49.0005 26.3508 49.0581 23.3355 49.0005 20.3201C48.9621 17.4392 51.0556 15.2881 53.9173 15.096C55.2809 15 56.6638 15.0192 58.0466 15.0192C61.6958 15.0192 65.3257 15 68.9749 15.0384C71.2796 15.0576 73.0082 16.1524 74.0069 18.2266C74.5062 19.2446 74.6599 20.3585 74.487 21.5109C74.2758 23.0282 73.738 24.3918 72.4896 25.3521C71.4717 26.1396 70.2809 26.5621 68.9749 26.5813C64.5575 26.6005 60.1593 26.5813 55.7419 26.5813C55.7419 26.6005 55.7035 26.5813 55.5882 26.5621Z" fill="#F0F1F1"/>
<path d="M109.385 15.0576C109.999 15.0576 110.575 15.0576 111.152 15.0576C116.856 15.0576 122.541 15.0576 128.245 15.0576C129.263 15.0576 130.281 15.1921 131.203 15.6722C132.778 16.4789 133.719 17.7465 133.911 19.5326C134.045 20.685 134.007 21.8182 133.719 22.9129C133.181 24.9872 131.376 26.4084 129.128 26.6005C128.495 26.6581 127.861 26.6773 127.227 26.6773C123.674 26.6773 120.121 26.7349 116.568 26.6581C114.858 26.6197 113.764 27.7529 113.764 29.4046C113.764 31.0563 113.744 32.6888 113.764 34.3406C113.764 34.7055 113.668 34.8207 113.303 34.8207C112.112 34.8015 110.921 34.8207 109.73 34.8399C109.519 34.8399 109.404 34.8015 109.404 34.5518C109.442 32.4392 109.346 30.3073 109.538 28.2138C109.73 26.0435 111.401 24.2958 113.418 23.8348C113.879 23.7388 114.359 23.7004 114.839 23.7004C118.796 23.7004 122.752 23.7004 126.709 23.7196C127.323 23.7196 127.938 23.7196 128.456 23.3355C129.417 22.6056 129.647 21.5685 129.57 20.4545C129.474 19.0525 128.379 17.7657 126.574 17.7849C121.004 17.8425 115.435 17.8041 109.865 17.8041C109.442 17.8041 109.346 17.6697 109.346 17.2855C109.404 16.5557 109.385 15.8259 109.385 15.0576Z" fill="#F0F1F1"/>
<path d="M206.875 34.8013C205.146 34.8013 203.418 34.8013 201.689 34.8013C201.286 34.8013 201.132 34.6861 201.151 34.2636C201.19 33.5914 201.171 32.8999 201.151 32.2277C201.132 31.9204 201.267 31.8052 201.555 31.8052C201.747 31.8052 201.939 31.8052 202.112 31.8052C204.993 31.8052 207.854 31.7668 210.735 31.8244C212.291 31.8628 213.078 30.7681 213.078 29.462C213.098 27.4838 213.078 25.5056 213.098 23.5466C213.098 22.2405 213.078 20.9153 213.174 19.6093C213.309 17.2854 215.037 15.5376 217.304 15.2111C218.437 15.0575 219.589 15.0575 220.723 15.0383C223.488 15.019 226.254 15.0382 229.039 15.019C229.365 15.019 229.461 15.1151 229.461 15.4416C229.461 16.229 229.48 17.0357 229.48 17.8231C229.48 18.092 229.404 18.1881 229.096 18.1881C226.023 18.1881 222.95 18.1881 219.877 18.2073C219.109 18.2073 218.514 18.5914 218.206 19.2636C217.976 19.7822 217.803 20.3776 217.784 20.9537C217.746 23.7194 217.784 26.4851 217.726 29.2508C217.707 30.1343 217.553 31.0369 217.285 31.882C216.766 33.4569 215.46 34.2252 213.904 34.5325C213.078 34.7053 212.214 34.7629 211.35 34.7821C209.852 34.8206 208.373 34.8013 206.875 34.8013Z" fill="#F0F1F1"/>
<path d="M156.766 15.0576C156.766 15.9795 156.785 16.8246 156.747 17.6696C156.747 17.7465 156.516 17.8809 156.382 17.9001C155.575 17.9385 154.75 17.9577 153.943 17.9577C150.793 17.9577 147.643 17.9385 144.513 17.9193C142.861 17.9193 142.054 18.6107 141.958 20.2433C141.901 21.242 141.939 22.2599 141.939 23.2586C141.939 26.1395 141.939 29.0205 141.939 31.9014C141.939 32.7656 141.881 33.6299 141.881 34.4942C141.881 34.7439 141.766 34.7823 141.555 34.7823C140.114 34.7823 138.693 34.8015 137.253 34.8207C136.945 34.8207 136.945 34.6094 136.945 34.4174C136.945 33.7067 136.945 32.9961 136.945 32.3047C136.945 28.4059 136.965 24.4878 136.945 20.589C136.945 19.3214 137.272 18.169 138.04 17.1511C139.02 15.8451 140.383 15.2305 141.977 15.1344C143.648 15.0384 145.3 15.0576 146.971 15.0576C150.063 15.0384 153.155 15.0576 156.228 15.0576C156.401 15.0576 156.555 15.0576 156.766 15.0576Z" fill="#F0F1F1"/>
<path d="M100.204 34.8015C100.204 33.1114 100.204 31.4981 100.204 29.8847C100.204 28.8668 99.8967 28.5019 98.8788 28.4827C96.9006 28.4251 94.9415 28.4251 92.9633 28.4251C89.9287 28.4251 86.9134 28.4251 83.8788 28.4251C83.6675 28.4251 83.4371 28.4251 83.2258 28.4635C82.3807 28.5595 82.0734 28.9052 82.0734 29.7695C82.0734 31.306 82.0542 32.8233 82.0734 34.3598C82.0734 34.7439 81.9582 34.8399 81.5933 34.8399C80.6714 34.8399 79.7303 34.8783 78.8084 34.9167C78.4627 34.936 78.3859 34.8207 78.3859 34.475C78.4051 33.2266 78.3667 31.959 78.4051 30.7106C78.4243 30.0192 78.4243 29.2701 78.6547 28.6171C79.4038 26.5621 81.0363 25.4289 83.245 25.4289C88.4499 25.4097 93.6547 25.3905 98.8596 25.4289C100.742 25.4481 102.259 26.2356 103.162 27.9449C103.373 28.3482 103.507 28.8476 103.527 29.3086C103.604 31.0563 103.623 32.7849 103.642 34.5326C103.642 34.6287 103.488 34.8015 103.411 34.8015C102.355 34.8207 101.299 34.8015 100.204 34.8015Z" fill="#F0F1F1"/>
<path d="M90.9467 23.9307C88.3154 23.9307 85.665 23.9883 83.0337 23.9115C80.9211 23.8539 79.3462 22.8167 78.6932 20.9537C78.4819 20.3391 78.4435 19.6285 78.4051 18.9563C78.3667 17.8039 78.4051 16.6516 78.3859 15.4992C78.3859 15.1535 78.4819 15.019 78.8468 15.019C79.6343 15.0382 80.4409 15.019 81.2476 15.0383C81.9006 15.0383 81.8814 15.0383 81.8814 15.6721C81.8814 16.9589 81.8814 18.2457 81.9006 19.5133C81.9198 20.4352 82.2079 20.7233 83.1298 20.7233C88.3154 20.7233 93.5203 20.7233 98.7059 20.7233C99.647 20.7233 99.9543 20.4352 99.9543 19.4749C99.9735 18.1881 99.9543 16.9012 99.9735 15.6336C99.9735 15.0575 99.9735 15.0575 100.55 15.0575C101.433 15.0575 102.317 15.0575 103.2 15.019C103.488 15.019 103.642 15.0959 103.623 15.4032C103.584 16.9781 103.68 18.553 103.507 20.1087C103.239 22.3174 101.26 23.8923 98.9172 23.9115C96.2476 23.9499 93.5971 23.9307 90.9467 23.9307Z" fill="#F0F1F1"/>
</g>
<defs>
<clipPath id="clip0_159_213">
<rect width="229" height="42" fill="white"/>
</clipPath>
</defs>
</svg>
