<svg width="43" height="43" viewBox="0 0 43 43" fill="none" xmlns="http://www.w3.org/2000/svg">
<path d="M33.5645 30.6183L42.4868 39.5406L39.5406 42.4869L30.6183 33.5646C27.4102 36.1312 23.3416 37.6667 18.9166 37.6667C8.56663 37.6667 0.166626 29.2667 0.166626 18.9167C0.166626 8.56666 8.56663 0.166656 18.9166 0.166656C29.2666 0.166656 37.6666 8.56666 37.6666 18.9167C37.6666 23.3417 36.1312 27.4102 33.5645 30.6183ZM29.3848 29.0725C31.9323 26.4471 33.5 22.8658 33.5 18.9167C33.5 10.8594 26.9739 4.33332 18.9166 4.33332C10.8593 4.33332 4.33329 10.8594 4.33329 18.9167C4.33329 26.9739 10.8593 33.5 18.9166 33.5C22.8658 33.5 26.447 31.9323 29.0725 29.3848L29.3848 29.0725Z" fill="#131313"/>
</svg>
