<svg width="36" height="36" viewBox="0 0 36 36" fill="none" xmlns="http://www.w3.org/2000/svg">
<path fill-rule="evenodd" clip-rule="evenodd" d="M10.3389 10.1559H2.70895L2.50895 9.39189C2.37695 8.89389 2.63295 8.60189 3.12895 8.60189H8.74895L10.3389 10.1559ZM18.2839 9.55889C17.003 9.56604 15.7397 9.85846 14.5859 10.4149L10.7959 6.64989C10.4409 6.29789 10.4069 5.79589 10.6649 5.35489L12.2869 2.58789L18.2889 8.54789L18.2839 9.55889ZM18.3019 6.88489L12.9159 1.51689L13.3099 0.844891C13.5699 0.400891 13.9599 0.373891 14.3099 0.722891L18.2839 4.66889L18.3019 6.88489ZM24.3449 12.0449C23.433 11.1479 22.3317 10.4665 21.1219 10.0509V4.72589C21.1219 4.23089 21.4559 3.84889 21.9509 3.71989L25.0669 2.90189V11.3319L24.3449 12.0449ZM26.2629 10.1649V2.58589L27.0329 2.38789C27.5319 2.25689 27.8279 2.50989 27.8279 3.00289V8.58589L26.2629 10.1649ZM26.8629 18.0589C26.8549 16.7852 26.5607 15.5296 26.0019 14.3849L29.7919 10.6189C30.1459 10.2679 30.6519 10.2329 31.0949 10.4899L33.881 12.1019L27.8799 18.0619L26.8619 18.0589H26.8629ZM29.5559 18.0769L34.9599 12.7269L35.636 13.1169C36.082 13.3759 36.11 13.7629 35.7589 14.1109L31.7859 18.0589L29.5559 18.0769ZM24.3619 24.0789C25.2621 23.1754 25.9477 22.0811 26.3679 20.8769H31.7279C32.2279 20.8769 32.611 21.2089 32.741 21.6999L33.5639 24.7979H25.0779L24.3619 24.0789ZM26.2539 25.9839L33.882 25.9959L34.082 26.7489C34.215 27.2449 33.957 27.5369 33.463 27.5369H27.8429L26.2539 25.9839ZM18.3069 26.5809C19.5885 26.5737 20.8524 26.2813 22.0069 25.7249L25.7959 29.4909C26.1489 29.8409 26.1859 30.3449 25.9259 30.7849L24.3039 33.5519L18.3029 27.5919L18.3069 26.5809ZM18.2899 29.2559L23.6749 34.6229L23.2809 35.2959C23.0209 35.7399 22.6319 35.7669 22.2809 35.4199L18.3069 31.4699L18.2899 29.2559ZM12.2469 24.0959C13.1594 24.9926 14.261 25.6736 15.4709 26.0889V31.4149C15.4709 31.9109 15.1359 32.2909 14.6409 32.4219L11.5229 33.2379V24.8079L12.2469 24.0959ZM10.3299 25.9759V33.5539L9.55895 33.7519C9.05995 33.8839 8.76495 33.6299 8.76495 33.1359V27.5549L10.3299 25.9759ZM9.72795 18.0809C9.73532 19.355 10.0296 20.6111 10.5889 21.7559L6.79995 25.5199C6.44695 25.8709 5.93995 25.9059 5.49795 25.6499L2.70995 24.0369L8.71195 18.0769L9.72795 18.0809ZM7.03595 18.0639L1.63295 23.4149L0.955949 23.0219C0.508949 22.7629 0.480949 22.3769 0.831949 22.0289L4.80495 18.0809L7.03595 18.0639ZM12.2299 12.0599C11.3297 12.9639 10.6439 14.0585 10.2229 15.2629H4.86295C4.36295 15.2629 3.97995 14.9329 3.84995 14.4389L3.02695 11.3439H11.5129L12.2299 12.0599Z" fill="#F00041"/>
</svg>
