<svg width="82" height="73" viewBox="0 0 82 73" fill="none" xmlns="http://www.w3.org/2000/svg">
<path d="M74.5455 65.7H82V73H0V65.7H7.45455V3.65C7.45455 1.63418 9.12332 0 11.1818 0H70.8182C72.8768 0 74.5455 1.63418 74.5455 3.65V65.7ZM26.0909 32.85V40.15H37.2727V32.85H26.0909ZM26.0909 18.25V25.55H37.2727V18.25H26.0909ZM26.0909 47.45V54.75H37.2727V47.45H26.0909ZM44.7273 47.45V54.75H55.9091V47.45H44.7273ZM44.7273 32.85V40.15H55.9091V32.85H44.7273ZM44.7273 18.25V25.55H55.9091V18.25H44.7273Z" fill="#129a9a"/>
</svg>
