<svg width="229" height="42" viewBox="0 0 229 42" fill="none" xmlns="http://www.w3.org/2000/svg">
<g clip-path="url(#clip0_159_203)">
<path fill-rule="evenodd" clip-rule="evenodd" d="M120.589 21.7371V20.3591H113.417V14.7961H112.027V29.6291C112.027 31.7481 113.757 33.4691 115.892 33.4691H127.63V31.8791H115.487C114.368 31.8791 113.417 31.1221 113.417 29.8691V21.7371H120.589ZM155.022 33.4691V30.2031H140.264C139.709 30.2031 139.333 29.8751 139.333 29.3161V18.7961C139.333 18.2441 139.664 17.8711 140.226 17.8711H151.906V22.7111H155.022V14.7941H140.373C138.057 14.9271 136.221 16.8371 136.221 19.1691V29.0851C136.221 31.5051 138.197 33.4691 140.636 33.4691H155.022ZM92.927 14.7961V29.6291C92.927 31.7481 94.657 33.4691 96.791 33.4691H108.531V31.8791H96.39C95.268 31.8791 94.319 31.1221 94.319 29.8691V14.7951H92.929L92.927 14.7961ZM87.832 14.7961V32.0861H77.48C76.359 32.0861 75.411 31.3311 75.411 30.0761V14.7961H73.83V29.6291C73.83 31.7501 75.558 33.4691 77.695 33.4691H89.43V14.7961H87.832ZM59.45 33.4691H61.049V18.2301C61.049 17.1161 61.811 16.1771 63.073 16.1771H66.683C67.801 16.1771 68.75 16.9321 68.75 18.1871V33.4701H70.333V18.6311C70.333 16.5111 68.6 14.7941 66.467 14.7941H63.316C62.7239 14.793 62.1395 14.9278 61.6077 15.1883C61.076 15.4487 60.6111 15.8277 60.249 16.2961C59.8873 15.8278 59.423 15.4489 58.8917 15.1885C58.3605 14.9281 57.7766 14.7931 57.185 14.7941H54.03C51.895 14.7941 50.166 16.5121 50.166 18.6311V33.4691H51.765V18.2301C51.765 17.1161 52.525 16.1771 53.789 16.1771H57.396C58.516 16.1771 59.466 16.9321 59.466 18.1871V18.2741C59.456 18.3941 59.449 18.5141 59.449 18.6321V33.4701L59.45 33.4691ZM131.127 33.4691H132.727V14.7961H131.127V33.4691ZM131.127 12.0321H132.727V8.93506H131.127V12.0321ZM206.237 14.8051H202.947V18.6931C202.947 19.2451 202.617 19.6181 202.056 19.6181H191.466C190.907 19.6181 190.533 19.2901 190.533 18.7311V14.8051H187.436V18.5851C187.572 20.8861 189.493 22.7091 191.841 22.7091H201.824C204.261 22.7091 206.237 20.7431 206.237 18.3241V14.8041V14.8051ZM187.437 33.4691H190.723V27.8891C190.723 27.3391 191.054 26.9661 191.617 26.9661H202.204C202.764 26.9661 203.14 27.2921 203.14 27.8511V33.4691H206.237V27.9961C206.101 25.6961 204.18 23.8731 201.832 23.8731H191.847C189.412 23.8731 187.437 25.8371 187.437 28.2571V33.4691ZM173.999 19.3321V33.4691H177.32V19.1761C177.32 16.7531 175.344 14.7941 172.907 14.7941H162.925C160.576 14.7941 158.657 16.6161 158.521 18.9161V29.0941C158.521 31.4241 160.355 33.3361 162.671 33.4691H172.585V30.3831L162.525 30.3921C162.456 30.3921 162.389 30.3871 162.325 30.3761C161.885 30.2961 161.63 29.9511 161.63 29.4641V27.8471L161.619 18.7721C161.619 18.2121 161.994 17.8841 162.55 17.8841H173.14C173.7 17.8841 174.032 18.2541 174.032 18.8101L173.999 19.3321ZM225.211 19.3321V33.4691H228.533V19.1761C228.533 16.7531 226.558 14.7941 224.121 14.7941H214.138C211.79 14.7941 209.872 16.6161 209.735 18.9161V29.0941C209.735 31.4241 211.571 33.3361 213.885 33.4691H223.799V30.3831L213.735 30.3921C213.668 30.3921 213.601 30.3871 213.539 30.3761C213.099 30.2961 212.844 29.9511 212.844 29.4641V27.8471L212.831 18.7721C212.831 18.2121 213.205 17.8841 213.763 17.8841H224.352C224.916 17.8841 225.247 18.2541 225.247 18.8101L225.211 19.3321ZM180.817 12.0321H183.937V8.93506H180.817V12.0321ZM180.817 33.4691H183.937V14.8051H180.817V33.4691Z" fill="#F0F1F1"/>
<mask id="mask0_159_203" style="mask-type:luminance" maskUnits="userSpaceOnUse" x="0" y="0" width="43" height="42">
<path d="M0.539978 0.416992H42.02V41.614H0.539978V0.416992Z" fill="white"/>
</mask>
<g mask="url(#mask0_159_203)">
<path fill-rule="evenodd" clip-rule="evenodd" d="M15.088 21.016C15.088 24.412 17.86 27.166 21.279 27.166C24.699 27.166 27.471 24.412 27.471 21.016C27.471 17.618 24.699 14.864 21.279 14.864C17.86 14.864 15.088 17.618 15.088 21.016ZM5.38797 19.459C4.76797 18.834 4.29497 18.066 4.07197 17.237L2.81397 12.577C2.24397 10.465 3.50597 8.75397 5.63097 8.75397H11.154C11.16 7.87597 11.373 7.00097 11.804 6.25597L14.234 2.07897C15.332 0.185972 17.443 -0.139028 18.944 1.35497L22.851 5.23397C23.48 4.61697 24.253 4.14797 25.087 3.92397L29.78 2.67697C31.905 2.11097 33.628 3.36397 33.628 5.47497V10.961C34.512 10.969 35.393 11.178 36.141 11.608L40.347 14.02C42.253 15.112 42.579 17.209 41.077 18.702L37.267 22.486C37.904 23.119 38.391 23.9 38.619 24.744L39.877 29.406C40.445 31.516 39.183 33.226 37.059 33.226H31.672C31.672 34.123 31.459 35.016 31.02 35.775L28.591 39.953C27.491 41.846 25.381 42.17 23.88 40.677L20.069 36.892C19.432 37.526 18.646 38.009 17.796 38.235L13.103 39.485C10.979 40.05 9.25697 38.797 9.25697 36.685V31.073C8.26597 31.121 7.25897 30.913 6.41897 30.433L2.21297 28.02C0.307973 26.928 -0.0180273 24.831 1.48497 23.34L5.38897 19.46" fill="#FF7C00"/>
</g>
<path fill-rule="evenodd" clip-rule="evenodd" d="M13.3389 13.1559H5.70895L5.50895 12.3919C5.37695 11.8939 5.63295 11.6019 6.12895 11.6019H11.7489L13.3389 13.1559ZM21.2839 12.5589C20.003 12.566 18.7397 12.8585 17.5859 13.4149L13.7959 9.64989C13.4409 9.29789 13.4069 8.79589 13.6649 8.35489L15.2869 5.58789L21.2889 11.5479L21.2839 12.5589ZM21.3019 9.88489L15.9159 4.51689L16.3099 3.84489C16.5699 3.40089 16.9599 3.37389 17.3099 3.72289L21.2839 7.66889L21.3019 9.88489ZM27.3449 15.0449C26.433 14.1479 25.3317 13.4665 24.1219 13.0509V7.72589C24.1219 7.23089 24.4559 6.84889 24.9509 6.71989L28.0669 5.90189V14.3319L27.3449 15.0449ZM29.2629 13.1649V5.58589L30.0329 5.38789C30.5319 5.25689 30.8279 5.50989 30.8279 6.00289V11.5859L29.2629 13.1649ZM29.8629 21.0589C29.8549 19.7852 29.5607 18.5296 29.0019 17.3849L32.7919 13.6189C33.1459 13.2679 33.6519 13.2329 34.0949 13.4899L36.881 15.1019L30.8799 21.0619L29.8619 21.0589H29.8629ZM32.5559 21.0769L37.9599 15.7269L38.636 16.1169C39.082 16.3759 39.11 16.7629 38.7589 17.1109L34.7859 21.0589L32.5559 21.0769ZM27.3619 27.0789C28.2621 26.1754 28.9477 25.0811 29.3679 23.8769H34.7279C35.2279 23.8769 35.611 24.2089 35.741 24.6999L36.5639 27.7979H28.0779L27.3619 27.0789ZM29.2539 28.9839L36.882 28.9959L37.082 29.7489C37.215 30.2449 36.957 30.5369 36.463 30.5369H30.8429L29.2539 28.9839ZM21.3069 29.5809C22.5885 29.5737 23.8524 29.2813 25.0069 28.7249L28.7959 32.4909C29.1489 32.8409 29.1859 33.3449 28.9259 33.7849L27.3039 36.5519L21.3029 30.5919L21.3069 29.5809ZM21.2899 32.2559L26.6749 37.6229L26.2809 38.2959C26.0209 38.7399 25.6319 38.7669 25.2809 38.4199L21.3069 34.4699L21.2899 32.2559ZM15.2469 27.0959C16.1594 27.9926 17.261 28.6736 18.4709 29.0889V34.4149C18.4709 34.9109 18.1359 35.2909 17.6409 35.4219L14.5229 36.2379V27.8079L15.2469 27.0959ZM13.3299 28.9759V36.5539L12.5589 36.7519C12.0599 36.8839 11.7649 36.6299 11.7649 36.1359V30.5549L13.3299 28.9759ZM12.7279 21.0809C12.7353 22.355 13.0296 23.6111 13.5889 24.7559L9.79995 28.5199C9.44695 28.8709 8.93995 28.9059 8.49795 28.6499L5.70995 27.0369L11.7119 21.0769L12.7279 21.0809ZM10.0359 21.0639L4.63295 26.4149L3.95595 26.0219C3.50895 25.7629 3.48095 25.3769 3.83195 25.0289L7.80495 21.0809L10.0359 21.0639ZM15.2299 15.0599C14.3297 15.9639 13.6439 17.0585 13.2229 18.2629H7.86295C7.36295 18.2629 6.97995 17.9329 6.84995 17.4389L6.02695 14.3439H14.5129L15.2299 15.0599Z" fill="#F00041"/>
</g>
<defs>
<clipPath id="clip0_159_203">
<rect width="229" height="42" fill="white"/>
</clipPath>
</defs>
</svg>
