<svg width="22" height="21" viewBox="0 0 22 21" fill="none" xmlns="http://www.w3.org/2000/svg">
<path d="M4.9 17.2308L0 21V1.07692C0 0.48216 0.492492 0 1.1 0H20.9C21.5075 0 22 0.48216 22 1.07692V16.1538C22 16.7486 21.5075 17.2308 20.9 17.2308H4.9ZM9.9 11.8462V14H12.1V11.8462H9.9ZM7.22404 6.26065L9.38168 6.68314C9.53216 5.94271 10.1995 5.38462 11 5.38462C11.9112 5.38462 12.65 6.10784 12.65 7C12.65 7.89212 11.9112 8.61539 11 8.61539H9.9V10.7692H11C13.1263 10.7692 14.85 9.08169 14.85 7C14.85 4.91831 13.1263 3.23077 11 3.23077C9.1322 3.23077 7.57501 4.53297 7.22404 6.26065Z" fill="#F0F1F1"/>
</svg>
