<svg width="31" height="29" viewBox="0 0 31 29" fill="none" xmlns="http://www.w3.org/2000/svg">
<path d="M22.7917 25.1667H8.20834V26.625C8.20834 27.4304 7.55541 28.0833 6.75 28.0833H5.29167C4.48626 28.0833 3.83334 27.4304 3.83334 26.625V25.1667H2.37501V13.5H0.916672V7.66667H2.37501V3.29167C2.37501 1.68084 3.68084 0.375 5.29167 0.375H25.7083C27.3192 0.375 28.625 1.68084 28.625 3.29167V7.66667H30.0833V13.5H28.625V25.1667H27.1667V26.625C27.1667 27.4304 26.5138 28.0833 25.7083 28.0833H24.25C23.4446 28.0833 22.7917 27.4304 22.7917 26.625V25.1667ZM5.29167 3.29167V16.4167H25.7083V3.29167H5.29167ZM5.29167 19.3333V22.25H11.125V19.3333H5.29167ZM19.875 19.3333V22.25H25.7083V19.3333H19.875Z" fill="url(#paint0_linear_887_21)"/>
<defs>
<linearGradient id="paint0_linear_887_21" x1="25.5625" y1="4.11562" x2="7.56755" y2="25.9496" gradientUnits="userSpaceOnUse">
<stop stop-color="#00579E"/>
<stop offset="1" stop-color="#00345F"/>
</linearGradient>
</defs>
</svg>
