<svg width="24" height="21" viewBox="0 0 24 21" fill="none" xmlns="http://www.w3.org/2000/svg">
<path d="M0 7.58333V1.16667C0 0.522328 0.537263 0 1.2 0H22.8C23.4628 0 24 0.522328 24 1.16667V7.58333C22.3432 7.58333 21 8.88919 21 10.5C21 12.1108 22.3432 13.4167 24 13.4167V19.8333C24 20.4777 23.4628 21 22.8 21H1.2C0.537263 21 0 20.4777 0 19.8333V13.4167C1.65685 13.4167 3 12.1108 3 10.5C3 8.88919 1.65685 7.58333 0 7.58333ZM14.4 2.33333H2.4V5.79572C4.17806 6.65479 5.39999 8.43862 5.39999 10.5C5.39999 12.5613 4.17806 14.3452 2.4 15.2042V18.6667H14.4V2.33333ZM16.8 2.33333V18.6667H21.6V15.2042C19.822 14.3452 18.6 12.5613 18.6 10.5C18.6 8.43862 19.822 6.65479 21.6 5.79572V2.33333H16.8Z" fill="url(#paint0_linear_713_3434)"/>
<defs>
<linearGradient id="paint0_linear_713_3434" x1="20.28" y1="2.835" x2="6.89744" y2="20.4644" gradientUnits="userSpaceOnUse">
<stop stop-color="#00579E"/>
<stop offset="1" stop-color="#00345F"/>
</linearGradient>
</defs>
</svg>
