<svg width="35" height="35" viewBox="0 0 35 35" fill="none" xmlns="http://www.w3.org/2000/svg">
<path d="M24.7917 29.1667H10.2083V30.625C10.2083 31.4304 9.55541 32.0833 8.75 32.0833H7.29167C6.48626 32.0833 5.83334 31.4304 5.83334 30.625V29.1667H4.37501V17.5H2.91667V11.6667H4.37501V7.29167C4.37501 5.68084 5.68084 4.375 7.29167 4.375H27.7083C29.3192 4.375 30.625 5.68084 30.625 7.29167V11.6667H32.0833V17.5H30.625V29.1667H29.1667V30.625C29.1667 31.4304 28.5138 32.0833 27.7083 32.0833H26.25C25.4446 32.0833 24.7917 31.4304 24.7917 30.625V29.1667ZM7.29167 7.29167V20.4167H27.7083V7.29167H7.29167ZM7.29167 23.3333V26.25H13.125V23.3333H7.29167ZM21.875 23.3333V26.25H27.7083V23.3333H21.875Z" fill="url(#paint0_linear_45_20)"/>
<defs>
<linearGradient id="paint0_linear_45_20" x1="27.5625" y1="8.11562" x2="9.56755" y2="29.9496" gradientUnits="userSpaceOnUse">
<stop stop-color="#00579E"/>
<stop offset="1" stop-color="#00345F"/>
</linearGradient>
</defs>
</svg>
