<svg width="27" height="33" viewBox="0 0 27 33" fill="none" xmlns="http://www.w3.org/2000/svg">
<path d="M13.5 32.6031L4.21923 23.3225C-0.906408 18.1967 -0.906408 9.88648 4.21923 4.76085C9.34486 -0.364782 17.6551 -0.364782 22.7808 4.76085C27.9064 9.88648 27.9064 18.1967 22.7808 23.3225L13.5 32.6031ZM20.7183 21.2599C24.705 17.2734 24.705 10.8098 20.7183 6.82324C16.7318 2.83664 10.2682 2.83664 6.28161 6.82324C2.29501 10.8098 2.29501 17.2734 6.28161 21.2599L13.5 28.4784L20.7183 21.2599ZM13.5 16.9583C11.8891 16.9583 10.5833 15.6525 10.5833 14.0416C10.5833 12.4308 11.8891 11.125 13.5 11.125C15.1109 11.125 16.4167 12.4308 16.4167 14.0416C16.4167 15.6525 15.1109 16.9583 13.5 16.9583Z" fill="#00579E"/>
</svg>
