<svg width="9" height="9" viewBox="0 0 35 35" fill="none" xmlns="http://www.w3.org/2000/svg">
<path d="M34.8171 0.899841H0V6.41142H34.8171V0.899841Z" fill="#00579E"/>
<path d="M17.452 6.41342C7.86127 6.41342 0.0585938 14.1573 0.0585938 23.6782V34.204H5.27317V23.6782C5.27317 17.0114 10.7363 11.588 17.452 11.588C24.1677 11.588 29.6308 17.0114 29.6308 23.6782V34.204H34.8454V23.6782C34.8454 14.1573 27.0427 6.41342 17.454 6.41342H17.452Z" fill="#00579E"/>
<path d="M17.452 15.9965C12.3869 15.9965 8.28149 20.072 8.28149 25.1002C8.28149 30.1284 12.3869 34.2039 17.452 34.2039C22.517 34.2039 26.6204 30.1284 26.6204 25.1002C26.6204 20.072 22.515 15.9965 17.452 15.9965ZM20.0017 26.5624L17.452 28.0245L14.9023 26.5624V23.6381L17.452 22.178L20.0017 23.6381V26.5624Z" fill="#00579E"/>
</svg>
