<svg width="27" height="33" viewBox="0 0 27 33" fill="none" xmlns="http://www.w3.org/2000/svg">
<path d="M13.5 32.6032L4.21923 23.3225C-0.906408 18.1967 -0.906408 9.88651 4.21923 4.76088C9.34486 -0.364752 17.6551 -0.364752 22.7808 4.76088C27.9064 9.88651 27.9064 18.1967 22.7808 23.3225L13.5 32.6032ZM20.7183 21.26C24.705 17.2735 24.705 10.8099 20.7183 6.82327C16.7318 2.83667 10.2682 2.83667 6.28161 6.82327C2.29501 10.8099 2.29501 17.2735 6.28161 21.26L13.5 28.4784L20.7183 21.26ZM13.5 16.9583C11.8891 16.9583 10.5833 15.6525 10.5833 14.0417C10.5833 12.4308 11.8891 11.125 13.5 11.125C15.1109 11.125 16.4167 12.4308 16.4167 14.0417C16.4167 15.6525 15.1109 16.9583 13.5 16.9583Z" fill="url(#paint0_linear_831_13)"/>
<defs>
<linearGradient id="paint0_linear_831_13" x1="22.5563" y1="5.19434" x2="1.61406" y2="25.1922" gradientUnits="userSpaceOnUse">
<stop stop-color="#00579E"/>
<stop offset="1" stop-color="#00345F"/>
</linearGradient>
</defs>
</svg>
