<svg width="216" height="46" viewBox="0 0 216 46" fill="none" xmlns="http://www.w3.org/2000/svg">
<path d="M41.6883 38.1157V4.76343H48.503V19.8661L61.6536 4.76343H70.6281L55.6531 21.3443L71.1069 38.1157H62.084L48.501 22.9167V38.1157H41.6863H41.6883Z" fill="#131313"/>
<path d="M73.2203 26.2523V13.8171H79.6026V25.3939C79.6026 30.1112 81.7139 32.6363 85.2657 32.6363C89.0095 32.6363 91.0723 29.9688 91.0723 25.3939V13.8171H97.4082V38.1158H91.0723V34.8285C89.3934 37.0207 86.6558 38.3545 83.3444 38.3545C77.1055 38.3545 73.2183 34.1145 73.2183 26.2523H73.2203Z" fill="#131313"/>
<path d="M126.588 27.8246H108.11C108.829 31.0637 111.422 33.0173 114.254 33.0173C116.895 33.0173 118.574 31.7777 119.341 30.1592H126.013C124.334 35.0189 120.014 38.3543 114.254 38.3543C107.296 38.3543 101.728 32.8267 101.728 25.9673C101.728 19.1079 107.296 13.5803 114.254 13.5803C121.212 13.5803 126.78 18.9635 126.78 25.492C126.78 26.1599 126.683 27.2068 126.588 27.8266V27.8246ZM120.35 23.727C119.677 20.8689 117.133 18.9154 114.254 18.9154C111.375 18.9154 109.023 20.7265 108.207 23.727H120.35Z" fill="#131313"/>
<path d="M131.1 38.1157V13.817H137.436V17.1043C139.115 14.9121 141.804 13.5784 145.164 13.5784C151.403 13.5784 155.29 17.8184 155.29 25.6806V38.1157H148.907V26.539C148.907 21.8217 146.796 19.2965 143.244 19.2965C139.501 19.2965 137.438 21.9641 137.438 26.539V38.1157H131.102H131.1Z" fill="#131313"/>
<path d="M159.32 25.9654C159.32 19.0097 164.119 13.5784 171.366 13.5784C174.342 13.5784 177.126 14.7216 179.14 16.5809V0H185.523V38.1157H179.14V35.3519C177.124 37.2092 174.342 38.3544 171.366 38.3544C164.119 38.3544 159.32 32.923 159.32 25.9674V25.9654ZM179.142 25.9654C179.142 22.0102 176.31 19.0579 172.376 19.0579C168.442 19.0579 165.705 22.0122 165.705 25.9654C165.705 29.9186 168.489 32.8729 172.376 32.8729C176.263 32.8729 179.142 29.9186 179.142 25.9654Z" fill="#131313"/>
<path d="M189.796 25.9654C189.796 19.0097 194.594 13.5784 201.841 13.5784C204.817 13.5784 207.601 14.7216 209.616 16.5809V13.817H215.998V38.1157H209.616V35.3519C207.599 37.2092 204.817 38.3544 201.841 38.3544C194.594 38.3544 189.796 32.923 189.796 25.9674V25.9654ZM209.618 25.9654C209.618 22.0102 206.785 19.0579 202.851 19.0579C198.918 19.0579 196.18 22.0122 196.18 25.9654C196.18 29.9185 198.964 32.8729 202.851 32.8729C206.739 32.8729 209.618 29.9185 209.618 25.9654Z" fill="#131313"/>
<path d="M34.8171 4.8999H0V10.4115H34.8171V4.8999Z" fill="#00579E"/>
<path d="M17.452 10.4136C7.86127 10.4136 0.0585938 18.1575 0.0585938 27.6784V38.2041H5.27317V27.6784C5.27317 21.0115 10.7363 15.5882 17.452 15.5882C24.1677 15.5882 29.6308 21.0115 29.6308 27.6784V38.2041H34.8454V27.6784C34.8454 18.1575 27.0427 10.4136 17.454 10.4136H17.452Z" fill="#00579E"/>
<path d="M17.452 19.9966C12.3869 19.9966 8.28149 24.0721 8.28149 29.1003C8.28149 34.1285 12.3869 38.204 17.452 38.204C22.517 38.204 26.6204 34.1285 26.6204 29.1003C26.6204 24.0721 22.515 19.9966 17.452 19.9966ZM20.0017 30.5624L17.452 32.0246L14.9023 30.5624V27.6382L17.452 26.1781L20.0017 27.6382V30.5624Z" fill="#00579E"/>
<path d="M42.9126 44.532V41.1745H41.7529V40.4224H44.9108V41.1745H43.7511V44.532H42.9106H42.9126Z" fill="#00579E"/>
<path d="M45.1411 44.5319V41.5374H45.921V41.9065C46.0927 41.6658 46.3695 41.5073 46.7069 41.5073C46.8019 41.5073 46.8605 41.5133 46.9433 41.5314V42.3176C46.814 42.2935 46.7594 42.2875 46.6483 42.2875C46.2584 42.2875 45.921 42.5523 45.921 43.0096V44.5299H45.1411V44.5319Z" fill="#00579E"/>
<path d="M47.1978 43.0358C47.1978 42.1794 47.7897 41.5095 48.6827 41.5095C49.0484 41.5095 49.3919 41.6499 49.6404 41.8786V41.5376H50.4263V44.5321H49.6404V44.1911C49.3919 44.4197 49.0484 44.5601 48.6827 44.5601C47.7897 44.5601 47.1978 43.8902 47.1978 43.0338V43.0358ZM49.6404 43.0358C49.6404 42.5485 49.2909 42.1854 48.806 42.1854C48.3211 42.1854 47.9837 42.5485 47.9837 43.0358C47.9837 43.5232 48.3271 43.8862 48.806 43.8862C49.2848 43.8862 49.6404 43.5232 49.6404 43.0358Z" fill="#00579E"/>
<path d="M51.1052 44.5319V41.5374H51.8851V41.9426C52.0912 41.6718 52.4225 41.5073 52.8367 41.5073C53.6044 41.5073 54.0833 42.0288 54.0833 42.9975V44.5299H53.2973V43.1038C53.2973 42.5222 53.0367 42.2113 52.6003 42.2113C52.1397 42.2113 51.8851 42.5402 51.8851 43.1038V44.5299H51.1052V44.5319Z" fill="#00579E"/>
<path d="M54.5581 43.5994H55.3097C55.3622 43.834 55.5764 43.9403 55.8067 43.9403C56.0552 43.9403 56.2209 43.8461 56.2209 43.6535C56.2209 43.1902 54.6308 43.4249 54.6308 42.3859C54.6308 41.8524 55.1097 41.5115 55.7723 41.5115C56.2391 41.5115 56.8371 41.7341 56.9139 42.4281H56.2047C56.1744 42.2696 56.0269 42.1352 55.7723 42.1352C55.536 42.1352 55.4107 42.2476 55.4107 42.388C55.4107 42.8332 57.0068 42.6106 57.0068 43.6555C57.0068 44.2552 56.4391 44.5661 55.8067 44.5661C55.2572 44.5661 54.6531 44.3254 54.5601 43.6034L54.5581 43.5994Z" fill="#00579E"/>
<path d="M57.5139 46.0002V41.5396H58.2938V41.8805C58.5423 41.6519 58.8857 41.5115 59.2575 41.5115C60.1444 41.5115 60.7364 42.1814 60.7364 43.0378C60.7364 43.8942 60.1444 44.5641 59.2575 44.5641C58.8857 44.5641 58.5423 44.4237 58.2938 44.1951V46.0022H57.5139V46.0002ZM59.9565 43.0358C59.9565 42.5484 59.607 42.1854 59.1282 42.1854C58.6494 42.1854 58.2938 42.5484 58.2938 43.0358C58.2938 43.5232 58.6494 43.8862 59.1282 43.8862C59.607 43.8862 59.9565 43.5232 59.9565 43.0358Z" fill="#00579E"/>
<path d="M61.1143 43.0358C61.1143 42.1854 61.7992 41.5095 62.6578 41.5095C63.5165 41.5095 64.2014 42.1854 64.2014 43.0358C64.2014 43.8862 63.5145 44.5621 62.6578 44.5621C61.8012 44.5621 61.1143 43.8862 61.1143 43.0358ZM63.4195 43.0358C63.4195 42.6006 63.0821 42.2616 62.6558 42.2616C62.2295 42.2616 61.8982 42.6026 61.8982 43.0358C61.8982 43.4691 62.2295 43.81 62.6558 43.81C63.0821 43.81 63.4195 43.4691 63.4195 43.0358Z" fill="#00579E"/>
<path d="M64.7327 44.5319V41.5374H65.5125V41.9065C65.6843 41.6658 65.9611 41.5073 66.2985 41.5073C66.3934 41.5073 66.452 41.5133 66.5348 41.5314V42.3176C66.4055 42.2935 66.351 42.2875 66.2399 42.2875C65.8499 42.2875 65.5125 42.5523 65.5125 43.0096V44.5299H64.7327V44.5319Z" fill="#00579E"/>
<path d="M67.3166 44.532V42.2656H66.7246V41.5376H67.3166V40.5688H68.1025V41.5376H68.7531V42.2656H68.1025V44.532H67.3166Z" fill="#00579E"/>
<path d="M72.0685 43.2643H69.7915C69.8804 43.6634 70.1997 43.9041 70.5492 43.9041C70.8745 43.9041 71.0805 43.7517 71.1755 43.5511H71.9978C71.7917 44.1508 71.2583 44.56 70.5492 44.56C69.6925 44.56 69.0056 43.88 69.0056 43.0336C69.0056 42.1872 69.6905 41.5073 70.5492 41.5073C71.4078 41.5073 72.0927 42.1712 72.0927 42.9755C72.0927 43.0577 72.0806 43.1861 72.0685 43.2623V43.2643ZM71.3008 42.7589C71.2179 42.4059 70.9048 42.1652 70.5492 42.1652C70.1936 42.1652 69.9047 42.3878 69.8037 42.7589H71.2987H71.3008Z" fill="#00579E"/>
<path d="M72.4465 43.5994H73.1981C73.2506 43.834 73.4648 43.9403 73.6951 43.9403C73.9436 43.9403 74.1093 43.8461 74.1093 43.6535C74.1093 43.1902 72.5193 43.4249 72.5193 42.3859C72.5193 41.8524 72.9981 41.5115 73.6608 41.5115C74.1275 41.5115 74.7255 41.7341 74.8023 42.4281H74.0931C74.0628 42.2696 73.9153 42.1352 73.6608 42.1352C73.4244 42.1352 73.2991 42.2476 73.2991 42.388C73.2991 42.8332 74.8952 42.6106 74.8952 43.6555C74.8952 44.2552 74.3275 44.5661 73.6951 44.5661C73.1456 44.5661 72.5415 44.3254 72.4465 43.6034V43.5994Z" fill="#00579E"/>
</svg>
