<svg width="73" height="73" viewBox="0 0 73 73" fill="none" xmlns="http://www.w3.org/2000/svg">
<path d="M36.5 0C56.6582 0 73 16.3416 73 36.5C73 56.6582 56.6582 73 36.5 73C16.3416 73 0 56.6582 0 36.5C0 16.3416 16.3416 0 36.5 0ZM37.0829 51.1C29.6537 51.1 22.9651 54.2708 18.2966 59.3329C23.2884 63.318 29.6161 65.7 36.5 65.7C43.6887 65.7 50.2704 63.1023 55.3581 58.7946C50.7189 54.047 44.2449 51.1 37.0829 51.1ZM36.5 7.3C20.3733 7.3 7.3 20.3733 7.3 36.5C7.3 43.1087 9.49548 49.2046 13.1968 54.0981C19.1858 47.757 27.6723 43.8 37.0829 43.8C46.151 43.8 54.3605 47.4741 60.3046 53.4148C63.702 48.6425 65.7 42.8046 65.7 36.5C65.7 20.3733 52.6268 7.3 36.5 7.3ZM36.5 10.95C44.5632 10.95 51.1 17.4866 51.1 25.55C51.1 33.6132 44.5632 40.15 36.5 40.15C28.4366 40.15 21.9 33.6132 21.9 25.55C21.9 17.4866 28.4366 10.95 36.5 10.95ZM36.5 18.25C32.4682 18.25 29.2 21.5183 29.2 25.55C29.2 29.5818 32.4682 32.85 36.5 32.85C40.5318 32.85 43.8 29.5818 43.8 25.55C43.8 21.5183 40.5318 18.25 36.5 18.25Z" fill="url(#paint0_linear_843_26)"/>
<defs>
<linearGradient id="paint0_linear_843_26" x1="61.685" y1="9.855" x2="13.87" y2="64.97" gradientUnits="userSpaceOnUse">
<stop stop-color="#00579E"/>
<stop offset="1" stop-color="#00345F"/>
</linearGradient>
</defs>
</svg>
