<svg width="43" height="43" viewBox="0 0 43 43" fill="none" xmlns="http://www.w3.org/2000/svg">
<path d="M33.5645 30.6183L42.4868 39.5406L39.5406 42.4868L30.6183 33.5645C27.4102 36.1312 23.3416 37.6666 18.9166 37.6666C8.56663 37.6666 0.166626 29.2666 0.166626 18.9166C0.166626 8.56663 8.56663 0.166626 18.9166 0.166626C29.2666 0.166626 37.6666 8.56663 37.6666 18.9166C37.6666 23.3416 36.1312 27.4102 33.5645 30.6183ZM29.3848 29.0725C31.9323 26.447 33.5 22.8658 33.5 18.9166C33.5 10.8593 26.9739 4.33329 18.9166 4.33329C10.8593 4.33329 4.33329 10.8593 4.33329 18.9166C4.33329 26.9739 10.8593 33.5 18.9166 33.5C22.8658 33.5 26.447 31.9323 29.0725 29.3848L29.3848 29.0725Z" fill="#131313"/>
</svg>
