<svg width="26" height="27" viewBox="0 0 26 27" fill="none" xmlns="http://www.w3.org/2000/svg">
<path d="M13 0.0915527C20.176 0.0915527 26 5.91555 26 13.0916C26 20.2676 20.176 26.0916 13 26.0916C5.824 26.0916 0 20.2676 0 13.0916C0 5.91555 5.824 0.0915527 13 0.0915527ZM5.23032 17.5327C7.13808 20.3805 10.0036 22.1916 13.2076 22.1916C16.4116 22.1916 19.2772 20.3805 21.1849 17.5327C19.0951 15.5839 16.2906 14.3916 13.2076 14.3916C10.1247 14.3916 7.32023 15.5839 5.23032 17.5327ZM13 11.7916C15.154 11.7916 16.9 10.0455 16.9 7.89155C16.9 5.73765 15.154 3.99155 13 3.99155C10.846 3.99155 9.1 5.73765 9.1 7.89155C9.1 10.0455 10.846 11.7916 13 11.7916Z" fill="#666566"/>
</svg>
