<svg width="21" height="21" viewBox="0 0 21 21" fill="none" xmlns="http://www.w3.org/2000/svg">
<path d="M10.5 0C16.2989 0 21 4.70101 21 10.5C21 16.2989 16.2989 21 10.5 21C4.70101 21 0 16.2989 0 10.5C0 4.70101 4.70101 0 10.5 0ZM10.6677 14.7C8.53051 14.7 6.60641 15.6121 5.2634 17.0684C6.69941 18.2148 8.5197 18.9 10.5 18.9C12.568 18.9 14.4613 18.1527 15.9249 16.9135C14.5904 15.5478 12.728 14.7 10.6677 14.7ZM10.5 2.1C5.86081 2.1 2.1 5.86081 2.1 10.5C2.1 12.4011 2.73158 14.1547 3.79635 15.5625C5.51921 13.7383 7.96051 12.6 10.6677 12.6C13.2763 12.6 15.638 13.6569 17.3479 15.3659C18.3252 13.993 18.9 12.3137 18.9 10.5C18.9 5.86081 15.1392 2.1 10.5 2.1ZM10.5 3.15C12.8196 3.15 14.7 5.0304 14.7 7.35C14.7 9.66955 12.8196 11.55 10.5 11.55C8.1804 11.55 6.3 9.66955 6.3 7.35C6.3 5.0304 8.1804 3.15 10.5 3.15ZM10.5 5.25C9.34017 5.25 8.4 6.1902 8.4 7.35C8.4 8.50983 9.34017 9.45 10.5 9.45C11.6598 9.45 12.6 8.50983 12.6 7.35C12.6 6.1902 11.6598 5.25 10.5 5.25Z" fill="url(#paint0_linear_712_3422)"/>
<defs>
<linearGradient id="paint0_linear_712_3422" x1="17.745" y1="2.835" x2="3.99" y2="18.69" gradientUnits="userSpaceOnUse">
<stop stop-color="#00579E"/>
<stop offset="1" stop-color="#00345F"/>
</linearGradient>
</defs>
</svg>
