<svg width="87" height="73" viewBox="0 0 87 73" fill="none" xmlns="http://www.w3.org/2000/svg">
<path d="M12.4286 51.5294V23.6176C12.4286 12.9456 20.7753 4.29412 31.0714 4.29412C41.3677 4.29412 49.7143 12.9456 49.7143 23.6176V53.6765C49.7143 59.6054 54.3514 64.4118 60.0714 64.4118C65.7915 64.4118 70.4286 59.6054 70.4286 53.6765V25.0317C65.6013 23.2632 62.1429 18.4914 62.1429 12.8824C62.1429 5.76764 67.7071 0 74.5714 0C81.4357 0 87 5.76764 87 12.8824C87 18.4914 83.5415 23.2632 78.7143 25.0317V53.6765C78.7143 64.3486 70.3677 73 60.0714 73C49.7752 73 41.4286 64.3486 41.4286 53.6765V23.6176C41.4286 17.6887 36.7915 12.8824 31.0714 12.8824C25.3513 12.8824 20.7143 17.6887 20.7143 23.6176V51.5294H33.1429L16.5714 73L0 51.5294H12.4286ZM74.5714 17.1765C76.8595 17.1765 78.7143 15.2539 78.7143 12.8824C78.7143 10.5108 76.8595 8.58823 74.5714 8.58823C72.2833 8.58823 70.4286 10.5108 70.4286 12.8824C70.4286 15.2539 72.2833 17.1765 74.5714 17.1765Z" fill="#F0F1F1"/>
</svg>
