<svg width="25" height="21" viewBox="0 0 25 21" fill="none" xmlns="http://www.w3.org/2000/svg">
<path d="M3.57143 14.8235V6.79412C3.57143 3.72407 5.9699 1.23529 8.92857 1.23529C11.8873 1.23529 14.2857 3.72407 14.2857 6.79412V15.4412C14.2857 17.1467 15.6182 18.5294 17.2619 18.5294C18.9056 18.5294 20.2381 17.1467 20.2381 15.4412V7.20089C18.851 6.69216 17.8571 5.31945 17.8571 3.70588C17.8571 1.65919 19.4561 0 21.4286 0C23.4011 0 25 1.65919 25 3.70588C25 5.31945 24.0062 6.69216 22.619 7.20089V15.4412C22.619 18.5113 20.2206 21 17.2619 21C14.3032 21 11.9048 18.5113 11.9048 15.4412V6.79412C11.9048 5.08853 10.5723 3.70588 8.92857 3.70588C7.28487 3.70588 5.95238 5.08853 5.95238 6.79412V14.8235H9.52381L4.7619 21L0 14.8235H3.57143ZM21.4286 4.94118C22.0861 4.94118 22.619 4.38811 22.619 3.70588C22.619 3.02365 22.0861 2.47059 21.4286 2.47059C20.7711 2.47059 20.2381 3.02365 20.2381 3.70588C20.2381 4.38811 20.7711 4.94118 21.4286 4.94118Z" fill="#F0F1F1"/>
</svg>
