<svg width="25" height="25" viewBox="0 0 25 25" fill="none" xmlns="http://www.w3.org/2000/svg">
<path d="M19.0808 17.3832L24.1644 22.4669L22.4858 24.1455L17.4021 19.0619C15.5742 20.5243 13.2561 21.3991 10.7349 21.3991C4.8378 21.3991 0.0517578 16.6131 0.0517578 10.716C0.0517578 4.81891 4.8378 0.0328674 10.7349 0.0328674C16.632 0.0328674 21.418 4.81891 21.418 10.716C21.418 13.2372 20.5432 15.5554 19.0808 17.3832ZM16.6993 16.5025C18.1508 15.0066 19.044 12.9661 19.044 10.716C19.044 6.12522 15.3257 2.4069 10.7349 2.4069C6.14411 2.4069 2.42579 6.12522 2.42579 10.716C2.42579 15.3068 6.14411 19.0251 10.7349 19.0251C12.985 19.0251 15.0255 18.1319 16.5214 16.6804L16.6993 16.5025Z" fill="#767576"/>
</svg>
