<svg width="82" height="72" viewBox="0 0 82 72" fill="none" xmlns="http://www.w3.org/2000/svg">
<path d="M0 26V4C0 1.79084 1.83565 0 4.1 0H77.9C80.1644 0 82 1.79084 82 4V26C76.3391 26 71.75 30.4772 71.75 36C71.75 41.5228 76.3391 46 82 46V68C82 70.2092 80.1644 72 77.9 72H4.1C1.83565 72 0 70.2092 0 68V46C5.66091 46 10.25 41.5228 10.25 36C10.25 30.4772 5.66091 26 0 26ZM49.2 8H8.19999V19.871C14.275 22.8164 18.45 28.9324 18.45 36C18.45 43.0672 14.275 49.1836 8.19999 52.1288V64H49.2V8ZM57.4 8V64H73.8V52.1288C67.725 49.1836 63.55 43.0672 63.55 36C63.55 28.9324 67.725 22.8164 73.8 19.871V8H57.4Z" fill="#F0F1F1"/>
</svg>
